<?xml version="1.0" standalone="no"?>
<!DOCTYPE svg PUBLIC "-//W3C//DTD SVG 20010904//EN"
 "http://www.w3.org/TR/2001/REC-SVG-20010904/DTD/svg10.dtd">
<svg version="1.0" xmlns="http://www.w3.org/2000/svg"
 width="496.000000pt" height="239.000000pt" viewBox="0 0 496.000000 239.000000"
 preserveAspectRatio="xMidYMid meet">

<g transform="translate(0.000000,239.000000) scale(0.100000,-0.100000)"
fill="#000000" stroke="none">
<path d="M663 1565 c-110 -30 -177 -79 -242 -176 -62 -93 -85 -195 -60 -268
18 -52 38 -40 27 17 -15 72 13 195 40 178 23 -14 62 -107 62 -150 0 -36 -5
-47 -26 -61 -14 -9 -22 -21 -18 -25 15 -14 156 -52 175 -47 11 3 19 1 19 -5 0
-5 5 -6 10 -3 19 12 10 37 -37 108 l-47 70 60 54 c32 30 82 65 109 79 77 40
105 71 105 116 0 32 -5 40 -31 53 -16 9 -53 19 -82 23 l-52 6 50 8 c127 20
280 -39 359 -138 21 -26 25 -39 17 -47 -6 -6 -11 -27 -11 -46 0 -20 -7 -49
-15 -65 -18 -33 -11 -84 11 -93 20 -7 17 -17 -8 -28 -21 -9 -23 -18 -24 -80
-1 -38 -9 -91 -18 -117 -9 -27 -15 -60 -14 -75 3 -26 -2 -30 -54 -48 -67 -23
-82 -52 -20 -40 135 25 231 131 268 295 27 120 -8 252 -95 360 -69 85 -131
127 -214 148 -61 16 -180 14 -244 -3z m527 -380 c0 -8 -7 -15 -15 -15 -8 0
-15 -7 -15 -15 0 -8 -9 -15 -19 -15 -38 0 -1 52 42 59 4 0 7 -6 7 -14z"/>
<path d="M1380 1105 l0 -245 35 0 35 0 0 120 c0 66 2 120 5 120 4 0 133 -134
196 -203 32 -36 38 -38 81 -35 l48 3 -120 125 c-65 69 -119 129 -120 135 0 5
51 58 113 117 l112 107 -43 0 c-42 1 -48 -3 -155 -105 l-112 -105 -3 105 -3
106 -34 0 -35 0 0 -245z"/>
<path d="M4116 1244 c41 -58 78 -112 80 -119 3 -7 -11 -37 -32 -67 -20 -29
-56 -80 -79 -113 -62 -89 -62 -85 -15 -85 40 0 40 0 110 105 l69 105 44 -62
c24 -35 57 -82 72 -105 26 -40 31 -43 71 -43 l44 0 -47 68 c-25 37 -66 95 -90
129 l-44 62 37 53 c21 29 58 81 82 116 l44 62 -44 0 -43 0 -58 -90 c-31 -50
-61 -90 -65 -89 -4 0 -33 40 -66 90 l-58 89 -44 0 -44 0 76 -106z"/>
<path d="M1929 1191 c-66 -21 -108 -68 -120 -135 -27 -149 136 -257 266 -176
101 63 99 232 -5 293 -34 21 -105 29 -141 18z m97 -67 c43 -20 56 -43 56 -99
1 -57 -22 -91 -71 -106 -76 -23 -136 24 -136 106 0 66 39 109 103 114 8 1 29
-6 48 -15z"/>
<path d="M2293 1189 c-66 -19 -95 -101 -53 -147 11 -12 42 -28 69 -36 94 -28
113 -50 69 -80 -28 -20 -51 -20 -93 0 -26 12 -38 13 -55 4 -26 -14 -22 -27 14
-54 35 -26 126 -28 172 -3 48 25 61 87 29 138 -5 9 -41 27 -80 40 -56 19 -71
28 -73 46 -5 36 39 51 83 30 29 -14 39 -15 55 -5 11 7 20 18 20 25 0 34 -98
60 -157 42z"/>
<path d="M2655 1185 c-16 -9 -36 -23 -42 -32 -11 -15 -13 -14 -13 10 0 23 -4
27 -30 27 l-30 0 0 -165 0 -165 30 0 30 0 0 81 c0 119 14 164 57 184 28 13 41
15 59 6 35 -16 44 -49 44 -167 l0 -104 29 0 29 0 4 116 c3 113 4 116 31 140
34 29 67 31 98 5 21 -17 23 -28 27 -140 l4 -121 29 0 29 0 0 117 c0 98 -3 124
-21 160 -17 35 -28 45 -62 54 -51 14 -109 -1 -132 -34 -15 -21 -16 -21 -26 -4
-12 20 -67 47 -96 47 -10 0 -31 -7 -48 -15z"/>
<path d="M3237 1185 c-129 -46 -158 -201 -54 -292 42 -37 98 -49 155 -33 154
41 175 245 32 318 -51 25 -79 27 -133 7z m111 -65 c56 -34 68 -103 29 -161
-30 -45 -79 -58 -129 -35 -77 37 -80 163 -4 200 42 21 65 20 104 -4z"/>
<path d="M3605 1185 c-22 -8 -41 -15 -41 -15 -1 0 -9 -16 -18 -35 -31 -64 -6
-102 84 -131 30 -9 61 -21 68 -27 18 -14 15 -45 -7 -57 -29 -15 -52 -12 -92 9
l-37 20 -21 -23 -22 -24 26 -20 c35 -28 97 -37 150 -22 53 15 74 36 82 82 8
53 -17 84 -86 105 -31 9 -65 24 -75 34 -42 38 18 74 75 45 29 -15 34 -15 56 0
21 13 22 18 11 31 -15 19 -70 43 -95 43 -10 -1 -36 -7 -58 -15z"/>
<path d="M362 1059 c-53 -20 -31 -74 48 -114 28 -14 50 -27 50 -29 0 -2 -18
-13 -41 -25 l-40 -21 -33 25 c-61 47 -107 23 -67 -34 18 -25 20 -33 10 -49
-16 -25 -6 -49 25 -63 20 -10 50 -6 160 20 74 17 141 31 149 31 9 0 30 -19 48
-42 45 -57 68 -78 90 -78 33 0 49 39 49 117 0 40 4 73 8 73 17 0 122 103 122
119 0 10 -9 26 -19 35 -25 23 -132 23 -192 0 -59 -22 -78 -22 -189 8 -123 34
-150 38 -178 27z"/>
<path d="M3837 1053 c-4 -3 -7 -17 -7 -30 0 -22 3 -23 85 -23 l85 0 0 30 0 30
-78 0 c-43 0 -82 -3 -85 -7z"/>
</g>
</svg>
